<svg width="24" height="24" viewBox="0 0 24 24" fill="none" xmlns="http://www.w3.org/2000/svg">
<path d="M12 10H4C2.89543 10 2 10.8954 2 12V20C2 21.1046 2.89543 22 4 22H12C13.1046 22 14 21.1046 14 20V12C14 10.8954 13.1046 10 12 10Z" stroke="#585563" stroke-width="2" stroke-linecap="round" stroke-linejoin="round"/>
<path d="M17.92 14L21.42 10.5C21.791 10.0885 21.9964 9.55407 21.9964 8.99999C21.9964 8.44591 21.791 7.9115 21.42 7.49999L16.42 2.57999C16.0085 2.20896 15.4741 2.0036 14.92 2.0036C14.3659 2.0036 13.8315 2.20896 13.42 2.57999L10 5.99999" stroke="#585563" stroke-width="2" stroke-linecap="round" stroke-linejoin="round"/>
<path d="M6 18H6.01" stroke="#585563" stroke-width="2" stroke-linecap="round" stroke-linejoin="round"/>
<path d="M10 14H10.01" stroke="#585563" stroke-width="2" stroke-linecap="round" stroke-linejoin="round"/>
<path d="M15 6H15.01" stroke="#585563" stroke-width="2" stroke-linecap="round" stroke-linejoin="round"/>
<path d="M18 9H18.01" stroke="#585563" stroke-width="2" stroke-linecap="round" stroke-linejoin="round"/>
</svg>
