<svg width="24" height="24" viewBox="0 0 24 24" fill="none" xmlns="http://www.w3.org/2000/svg">
<path d="M10 2V9.31" stroke="#585563" stroke-width="2" stroke-linecap="round" stroke-linejoin="round"/>
<path d="M14 9.30001V1.99001" stroke="#585563" stroke-width="2" stroke-linecap="round" stroke-linejoin="round"/>
<path d="M8.5 2H15.5" stroke="#585563" stroke-width="2" stroke-linecap="round" stroke-linejoin="round"/>
<path d="M14 9.3C15.4733 9.77645 16.7282 10.7632 17.5386 12.0826C18.3491 13.4021 18.6618 14.9675 18.4207 16.497C18.1795 18.0266 17.4002 19.4198 16.2231 20.4258C15.046 21.4319 13.5484 21.9847 12 21.9847C10.4516 21.9847 8.95397 21.4319 7.77687 20.4258C6.59977 19.4198 5.82048 18.0266 5.57932 16.497C5.33815 14.9675 5.65095 13.4021 6.46139 12.0826C7.27183 10.7632 8.52667 9.77645 10 9.3" stroke="#585563" stroke-width="2" stroke-linecap="round" stroke-linejoin="round"/>
<path d="M5.58 16.5H18.43" stroke="#585563" stroke-width="2" stroke-linecap="round" stroke-linejoin="round"/>
</svg>
