<svg width="24" height="24" viewBox="0 0 24 24" fill="none" xmlns="http://www.w3.org/2000/svg">
<path d="M17.5 5.5C19 7 20.5 9 21 11C19.677 11.265 18.354 11.39 16.882 11.226" stroke="#585563" stroke-width="2" stroke-linecap="round" stroke-linejoin="round"/>
<path d="M5.5 17.5C7 19 9 20.5 11 21C11.5 18.5 11.5 16 10 12.5" stroke="#585563" stroke-width="2" stroke-linecap="round" stroke-linejoin="round"/>
<path d="M17.5 17.5C15 17.5 13.5 17.5 11.5 16.5" stroke="#585563" stroke-width="2" stroke-linecap="round" stroke-linejoin="round"/>
<path d="M20 11.5C21 13 22 15 22 16" stroke="#585563" stroke-width="2" stroke-linecap="round" stroke-linejoin="round"/>
<path d="M11.5 20C13 21 15 22 16 22C16.5 20.5 16 19 15.5 17.5" stroke="#585563" stroke-width="2" stroke-linecap="round" stroke-linejoin="round"/>
<path d="M22 22C20 22 18.5 21.5 16.5 20.5" stroke="#585563" stroke-width="2" stroke-linecap="round" stroke-linejoin="round"/>
<path d="M4.783 4.782C1.073 8.492 0.999998 14.5 5 18C6 17 7 13.5 6.5 11.5C8 12.5 10.5 12.5 12 12M8.227 2.57C11.578 1.335 15.453 2.089 18 5C17.12 5.88 14.3 6.761 12.274 6.618" stroke="#585563" stroke-width="2" stroke-linecap="round" stroke-linejoin="round"/>
<path d="M2 2L22 22" stroke="#585563" stroke-width="2" stroke-linecap="round" stroke-linejoin="round"/>
</svg>
